<?xml version="1.0" encoding="UTF-8"?>
<svg id="svg246" width="1575" height="935" version="1.1" viewBox="0 0 1575 935" xmlns="http://www.w3.org/2000/svg">
 <defs id="defs1">
  <clipPath id="Clip_1">
   <path id="path1" d="m1 935.48h1579.7v-934.84h-1579.7z"/>
  </clipPath>
 </defs>
 <g id="Layer_1">
  <g id="g246" clip-path="url(#Clip_1)">
   <path id="path84" d="m485.88 823.13c-2.303 3.215-4.264 10.532-3.557 15.298-36.728 0.638-79.84-52.368-41.288-112.56 70.79 9.758 83.124 76.946 58.821 104.44-3.147-3.58-10.009-6.84-13.976-7.182" fill="#F9DBDD"/>
   <path id="path85" d="m552.61 703.85c2.348 3.191 8.709 7.318 13.451 8.139-10.738 35.11-74.483 59.686-119.83 4.468 31.166-64.314 98.9-55.287 117.53-23.665-4.399 1.893-9.598 7.387-11.148 11.058" fill="#F9DBDD"/>
   <path id="path86" d="m459.78 603.53c3.762-1.254 9.667-6.019 11.901-10.282 30.071 21.066 33.787 89.303-32.784 115.34-51.525-49.496-22.024-111.14 13.816-119.1 0.41 4.788 4.058 11.445 7.067 14.044" fill="#F9DBDD"/>
   <path id="path87" d="m335.68 660.82c-0.023-3.967-2.736-11.057-6.087-14.477 29.319-22.091 95.343-4.559 99.561 66.8-63.015 33.719-112.49-13.405-109-49.928 4.674 1.047 12.129-0.32 15.526-2.395" fill="#F9DBDD"/>
   <path id="path88" d="m351.82 796.54c-3.785-1.209-11.354-0.799-15.663 1.299-11.946-34.699 25.147-92.061 94.295-74.027 12.608 70.333-47.512 102.82-81.163 88.231 2.463-4.127 3.42-11.65 2.531-15.503" fill="#F9DBDD"/>
   <path id="path89" d="m441.04 725.87 0.57-5.974 4.628-3.442-5.381-2.599-1.96-5.266-4.013 4.103-5.722 0.456 2.758 4.879-1.459 5.791 5.609-1.345z" fill="#AB8072"/>
   <path id="path90" d="m485.24 717.16c-12.744 2.074-16.962-3.99-33.422-0.685" fill-opacity="0" stroke="#F3B882" stroke-linecap="round" stroke-linejoin="round" stroke-width="1.966"/>
   <path id="path91" d="m468.44 762.73c1.414-8.208-13.611-19.242-23.209-31.85" fill-opacity="0" stroke="#F3B882" stroke-linecap="round" stroke-linejoin="round" stroke-width="1.966"/>
   <path id="path92" d="m450.36 763.53c-9.94-8.208-9.53-20.679-9.416-31.622" fill-opacity="0" stroke="#F3B882" stroke-linecap="round" stroke-linejoin="round" stroke-width="1.966"/>
   <path id="path93" d="m425.83 729.88c-6.634 9.233-16.643 22.365-26.4 26.856" fill-opacity="0" stroke="#F3B882" stroke-linecap="round" stroke-linejoin="round" stroke-width="1.966"/>
   <path id="path94" d="m424.42 725.82c-7.021 3.237-16.277 16.962-25.191 19.174" fill-opacity="0" stroke="#F3B882" stroke-linecap="round" stroke-linejoin="round" stroke-width="1.966"/>
   <path id="path95" d="m425.42 718.73c-6.749 0.729-26.424-3.922-32.716 0.889" fill-opacity="0" stroke="#F3B882" stroke-linecap="round" stroke-linejoin="round" stroke-width="1.966"/>
   <path id="path96" d="m423.16 710.78c-9.119-3.374-10.441-10.328-19.128-14.819" fill-opacity="0" stroke="#F3B882" stroke-linecap="round" stroke-linejoin="round" stroke-width="1.966"/>
   <path id="path97" d="m431.94 707.2c-4.4-7.433-18.581-20.747-13.611-26.378" fill-opacity="0" stroke="#F3B882" stroke-linecap="round" stroke-linejoin="round" stroke-width="1.966"/>
   <path id="path98" d="m442.66 708.91c6.247-10.008 13.52-27.107 8.937-33.97" fill-opacity="0" stroke="#F3B882" stroke-linecap="round" stroke-linejoin="round" stroke-width="1.966"/>
   <path id="path99" d="m436.61 680.43c3.124 4.719 3.603 20.108 1.528 24.851" fill-opacity="0" stroke="#F3B882" stroke-linecap="round" stroke-linejoin="round" stroke-width="1.966"/>
   <path id="path100" d="m474.46 693.75c-9.097 1.823-18.809 16.711-26.948 19.516" fill-opacity="0" stroke="#F3B882" stroke-linecap="round" stroke-linejoin="round" stroke-width="1.966"/>
   <path id="path101" d="m477.95 735.19c-11.81 3.078-24.736-7.501-30.915-12.722" fill-opacity="0" stroke="#F3B882" stroke-linecap="round" stroke-linejoin="round" stroke-width="1.966"/>
   <path id="path102" d="m434.86 729.97c-5.472 9.644-11.24 27.929-5.267 32.693" fill-opacity="0" stroke="#F3B882" stroke-linecap="round" stroke-linejoin="round" stroke-width="1.966"/>
   <path id="path103" d="m834.83 907.3c-3.214 2.303-7.432 8.618-8.299 13.338-34.967-11.194-58.791-75.235-2.963-119.85 63.905 31.964 54.033 99.584 22.16 117.8-1.824-4.4-7.25-9.689-10.898-11.286" fill="#F9DBDD"/>
   <path id="path104" d="m936.31 815.74c1.209 3.784 5.905 9.734 10.123 12.015-21.431 29.82-89.689 32.647-114.9-34.221 50.157-50.909 111.42-20.61 118.92 15.32-4.788 0.388-11.491 3.922-14.136 6.886" fill="#F9DBDD"/>
   <path id="path105" d="m880.61 690.94c3.967 0.022 11.08-2.599 14.568-5.928 21.704 29.616 3.328 95.412-68.077 98.718-32.915-63.426 14.82-112.33 51.32-108.36-1.14 4.674 0.16 12.151 2.189 15.571" fill="#F9DBDD"/>
   <path id="path106" d="m744.68 705.35c1.265-3.739 0.969-11.354-1.106-15.663 34.859-11.514 91.759 26.309 72.836 95.229-70.488 11.697-102.22-48.811-87.188-82.28 4.093 2.508 11.571 3.58 15.458 2.714" fill="#F9DBDD"/>
   <path id="path107" d="m716.4 839.09c-3.192-2.371-10.487-4.4-15.252-3.808-0.183-36.706 53.381-79.133 113.08-39.851-10.648 70.676-78.012 82.142-105.19 57.52 3.648-3.123 6.976-9.917 7.364-13.861" fill="#F9DBDD"/>
   <path id="path108" d="m823.57 800.78 2.462-5.472 5.494-1.778-4.263-4.195-0.16-5.609-5.106 2.6-5.586-1.414 1.049 5.517-3.238 4.994 5.745 0.546z" fill="#AB8072"/>
   <path id="path109" d="m868.25 806.74c-12.744-2.143-14.796-9.233-31.439-11.399" fill-opacity="0" stroke="#F3B882" stroke-linecap="round" stroke-linejoin="round" stroke-width="1.966"/>
   <path id="path110" d="m837.7 844.51c3.967-7.341-6.726-22.616-11.764-37.641" fill-opacity="0" stroke="#F3B882" stroke-linecap="round" stroke-linejoin="round" stroke-width="1.966"/>
   <path id="path111" d="m820.31 839.45c-6.771-10.966-2.394-22.639 1.254-32.989" fill-opacity="0" stroke="#F3B882" stroke-linecap="round" stroke-linejoin="round" stroke-width="1.966"/>
   <path id="path112" d="m807.88 799.69c-9.257 6.612-22.941 15.846-33.623 16.963" fill-opacity="0" stroke="#F3B882" stroke-linecap="round" stroke-linejoin="round" stroke-width="1.966"/>
   <path id="path113" d="m807.86 795.4c-7.683 0.798-20.877 10.83-30.02 10.077" fill-opacity="0" stroke="#F3B882" stroke-linecap="round" stroke-linejoin="round" stroke-width="1.966"/>
   <path id="path114" d="m811.07 789c-6.635-1.459-23.75-12.174-31.251-9.644" fill-opacity="0" stroke="#F3B882" stroke-linecap="round" stroke-linejoin="round" stroke-width="1.966"/>
   <path id="path115" d="m811.51 780.74c-7.569-6.11-6.589-13.132-13.354-20.177" fill-opacity="0" stroke="#F3B882" stroke-linecap="round" stroke-linejoin="round" stroke-width="1.966"/>
   <path id="path116" d="m820.95 780.18c-1.778-8.436-10.921-25.625-4.4-29.342" fill-opacity="0" stroke="#F3B882" stroke-linecap="round" stroke-linejoin="round" stroke-width="1.966"/>
   <path id="path117" d="m830.57 785.24c9.119-7.478 21.499-21.34 19.355-29.296" fill-opacity="0" stroke="#F3B882" stroke-linecap="round" stroke-linejoin="round" stroke-width="1.966"/>
   <path id="path118" d="m833.99 756.33c1.413 5.472-3.056 20.199-6.544 24.029" fill-opacity="0" stroke="#F3B882" stroke-linecap="round" stroke-linejoin="round" stroke-width="1.966"/>
   <path id="path119" d="m865.54 781.09c-9.188-1.186-23.163 9.78-31.781 9.85" fill-opacity="0" stroke="#F3B882" stroke-linecap="round" stroke-linejoin="round" stroke-width="1.966"/>
   <path id="path120" d="m855.56 821.46c-12.175-0.89-21.043-15.048-25.216-21.979" fill-opacity="0" stroke="#F3B882" stroke-linecap="round" stroke-linejoin="round" stroke-width="1.966"/>
   <path id="path121" d="m816.41 802.68c-8.299 7.387-19.602 22.844-15.48 29.296" fill-opacity="0" stroke="#F3B882" stroke-linecap="round" stroke-linejoin="round" stroke-width="1.966"/>
   <path id="path122" d="m308.19 553.33c0.98 3.83 5.335 10.054 9.416 12.563-23.118 28.542-91.423 27.517-112.76-40.697 52.961-47.968 112.4-14.249 117.82 22.047-4.765 0.113-11.673 3.26-14.477 6.087" fill="#F9DBDD"/>
   <path id="path123" d="m259.65 425.54c3.967 0.251 11.217-1.96 14.887-5.073 19.995 30.79-2.097 95.429-73.571 94.7-29.251-65.232 21.203-111.32 57.384-105.29-1.367 4.606-0.501 12.129 1.3 15.663" fill="#F9DBDD"/>
   <path id="path124" d="m123.16 432.21c1.459-3.682 1.596-11.274-0.251-15.72 35.475-9.507 90.123 31.485 67.324 99.225-71.063 7.683-99.31-54.54-82.371-87.119 3.921 2.759 11.376 4.241 15.298 3.614" fill="#F9DBDD"/>
   <path id="path125" d="m87.293 564.11c-3.032-2.531-10.237-5.017-15.001-4.651 1.915-36.661 57.771-75.965 115.16-33.355-14.659 69.946-82.553 77.584-108.29 51.411 3.807-2.895 7.546-9.484 8.139-13.405" fill="#F9DBDD"/>
   <path id="path126" d="m201.67 638.96c-3.374 2.12-7.911 8.185-9.097 12.835-34.243-13.154-54.374-78.449 3.876-119.83 62.013 35.543 48.265 102.48 15.458 118.89-1.573-4.537-6.703-10.099-10.237-11.9" fill="#F9DBDD"/>
   <path id="path127" d="m204.84 525.2-4.218-4.286 0.343-5.745-5.472 2.439-5.267-1.892 0.57 5.7-3.351 4.696 5.517 1.003 3.488 4.856 2.577-5.152z" fill="#AB8072"/>
   <path id="path128" d="m226.57 485.71c-6.589 11.104-13.953 10.442-22 25.17" fill-opacity="0" stroke="#F3B882" stroke-linecap="round" stroke-linejoin="round" stroke-width="1.966"/>
   <path id="path129" d="m250.71 527.89c-5.403-6.36-23.528-1.938-39.351-2.69" fill-opacity="0" stroke="#F3B882" stroke-linecap="round" stroke-linejoin="round" stroke-width="1.966"/>
   <path id="path130" d="m239.68 542.25c-12.653 2.325-21.955-5.996-30.276-13.132" fill-opacity="0" stroke="#F3B882" stroke-linecap="round" stroke-linejoin="round" stroke-width="1.966"/>
   <path id="path131" d="m198.14 539.42c2.804 11.012 6.452 27.131 3.602 37.481" fill-opacity="0" stroke="#F3B882" stroke-linecap="round" stroke-linejoin="round" stroke-width="1.966"/>
   <path id="path132" d="m194.13 537.87c-2.029 7.478 2.531 23.391-1.504 31.644" fill-opacity="0" stroke="#F3B882" stroke-linecap="round" stroke-linejoin="round" stroke-width="1.966"/>
   <path id="path133" d="m189.32 532.56c-3.762 5.654-19.972 17.737-20.313 25.626" fill-opacity="0" stroke="#F3B882" stroke-linecap="round" stroke-linejoin="round" stroke-width="1.966"/>
   <path id="path134" d="m181.79 529.16c-8.458 4.856-14.614 1.368-23.665 5.13" fill-opacity="0" stroke="#F3B882" stroke-linecap="round" stroke-linejoin="round" stroke-width="1.966"/>
   <path id="path135" d="m184.69 520.16c-8.527-1.414-27.836 0.889-28.954-6.521" fill-opacity="0" stroke="#F3B882" stroke-linecap="round" stroke-linejoin="round" stroke-width="1.966"/>
   <path id="path136" d="m192.87 513.02c-3.647-11.216-12.083-27.745-20.268-28.658" fill-opacity="0" stroke="#F3B882" stroke-linecap="round" stroke-linejoin="round" stroke-width="1.966"/>
   <path id="path137" d="m167.18 499.36c5.631 0.661 17.714 10.168 20.04 14.818" fill-opacity="0" stroke="#F3B882" stroke-linecap="round" stroke-linejoin="round" stroke-width="1.966"/>
   <path id="path138" d="m201.7 478.94c-4.423 8.139 0.729 25.123-2.348 33.193" fill-opacity="0" stroke="#F3B882" stroke-linecap="round" stroke-linejoin="round" stroke-width="1.966"/>
   <path id="path139" d="m235.69 502.88c-5.221 11.034-21.636 14.158-29.615 15.525" fill-opacity="0" stroke="#F3B882" stroke-linecap="round" stroke-linejoin="round" stroke-width="1.966"/>
   <path id="path140" d="m204 532.56c3.875 10.396 14.181 26.537 21.704 25.056" fill-opacity="0" stroke="#F3B882" stroke-linecap="round" stroke-linejoin="round" stroke-width="1.966"/>
   <path id="path141" d="m767.1 390.54c1.892-4.469 2.257-13.726 0.125-19.219 43.574-10.693 109.32 40.786 79.688 122.98-87.006 7.547-119.9-69.199-98.417-108.57 4.754 3.443 13.782 5.495 18.604 4.812" fill="#FFFFFE"/>
   <path id="path142" d="m719.91 550.8c-3.659-3.192-12.368-6.384-18.216-6.088 3.272-44.73 72.568-91.336 141.57-37.8-19.697 85.108-102.87 92.7-133.66 60.075 4.742-3.443 9.473-11.422 10.305-16.187" fill="#FFFFFE"/>
   <path id="path143" d="m857.72 645.18c-4.127 2.508-9.85 9.804-11.377 15.48-41.539-16.961-64.469-97.258 7.797-146.34 74.848 45.027 56.358 126.49 15.822 145.68-1.823-5.586-7.933-12.539-12.242-14.819" fill="#FFFFFE"/>
   <path id="path144" d="m990.11 543.28c1.095 4.719 6.247 12.425 11.148 15.616-28.93 34.267-112.37 31.257-136.72-52.641 65.956-57.253 137.7-14.5 143.45 29.98-5.882 0-14.386 3.67-17.874 7.045" fill="#FFFFFE"/>
   <path id="path145" d="m934.07 385.89c4.856 0.41 13.771-2.121 18.33-5.814 23.643 38.142-5.038 116.58-92.334 113.82-34.084-80.44 28.749-135.45 72.842-127.18-1.824 5.609-0.935 14.82 1.162 19.174" fill="#FFFFFE"/>
   <path id="path146" d="m846.91 494.3 0.957 7.272-4.605 5.335 7.113 1.664 3.762 5.746 3.67-5.973 6.726-2.098-4.628-5.061 0.159-7.295-6.292 3.123z" fill="#AB8072"/>
   <path id="path147" d="m796.59 516.69c14.619-5.95 21.322 0.137 40.017-8.275" fill-opacity="0" stroke="#F8CB89" stroke-linecap="round" stroke-linejoin="round" stroke-width="2.402"/>
   <path id="path148" d="m804.26 457.77c0.547 10.168 21.453 19.271 36.317 31.673" fill-opacity="0" stroke="#F8CB89" stroke-linecap="round" stroke-linejoin="round" stroke-width="2.402"/>
   <path id="path149" d="m825.6 451.94c14.067 7.067 16.963 22.069 19.789 35.138" fill-opacity="0" stroke="#F8CB89" stroke-linecap="round" stroke-linejoin="round" stroke-width="2.402"/>
   <path id="path150" d="m863.94 485.39c5.403-12.773 13.793-31.172 24.212-39.174" fill-opacity="0" stroke="#F8CB89" stroke-linecap="round" stroke-linejoin="round" stroke-width="2.402"/>
   <path id="path151" d="m866.73 489.86c7.501-5.745 14.819-24.628 24.851-29.712" fill-opacity="0" stroke="#F8CB89" stroke-linecap="round" stroke-linejoin="round" stroke-width="2.402"/>
   <path id="path152" d="m867.48 498.59c7.843-2.713 32.513-2.508 38.735-9.94" fill-opacity="0" stroke="#F8CB89" stroke-linecap="round" stroke-linejoin="round" stroke-width="2.402"/>
   <path id="path153" d="m872.31 507.44c11.787 1.55 15.229 9.508 26.811 12.493" fill-opacity="0" stroke="#F8CB89" stroke-linecap="round" stroke-linejoin="round" stroke-width="2.402"/>
   <path id="path154" d="m862.83 514.07c7.25 7.705 27.746 19.721 23.346 27.769" fill-opacity="0" stroke="#F8CB89" stroke-linecap="round" stroke-linejoin="round" stroke-width="2.402"/>
   <path id="path155" d="m849.58 514.96c-4.742 13.634-8.777 35.953-1.459 42.884" fill-opacity="0" stroke="#F8CB89" stroke-linecap="round" stroke-linejoin="round" stroke-width="2.402"/>
   <path id="path156" d="m864.49 547.26c-4.993-4.788-9.712-23.004-8.549-29.228" fill-opacity="0" stroke="#F8CB89" stroke-linecap="round" stroke-linejoin="round" stroke-width="2.402"/>
   <path id="path157" d="m815.79 541.66c10.327-4.651 17.874-25.01 26.834-30.573" fill-opacity="0" stroke="#F8CB89" stroke-linecap="round" stroke-linejoin="round" stroke-width="2.402"/>
   <path id="path158" d="m800.4 493.21c13.246-6.885 31.53 2.234 40.309 6.771" fill-opacity="0" stroke="#F8CB89" stroke-linecap="round" stroke-linejoin="round" stroke-width="2.402"/>
   <path id="path159" d="m853.16 487.74c3.922-12.978 5.859-36.324-2.599-40.427" fill-opacity="0" stroke="#F8CB89" stroke-linecap="round" stroke-linejoin="round" stroke-width="2.402"/>
   <path id="path160" d="m40.641 296.04c2.257-4.811 3.009-14.91 0.935-20.952 47.928-9.917 117.51 48.858 81.943 137.25-95.167 4.742-127.96-80.251-102.94-122.29 5.016 3.944 14.796 6.52 20.063 5.996" fill="#FFFFFE"/>
   <path id="path161" d="m91.807 141.03c3.488-2.439 8.07-9.097 9.074-14.112 37.116 12.424 61.579 81.071 1.413 127.88-67.717-35.019-56.181-106.99-21.955-125.98 1.87 4.742 7.615 10.464 11.468 12.22" fill="#FFFFFE"/>
   <path id="path162" d="m654.91 574.01c4.263 0.113 11.901-2.554 15.686-6.02 22.57 31.987 1.687 101.8-74.506 103.94-33.879-68.305 17.987-119.49 56.837-114.54-1.3 4.924-0.069 12.927 1.983 16.62" fill="#F9DBDD"/>
   <path id="path163" d="m33.471 685.08c-0.114-4.263-3.192-11.764-6.84-15.32 30.727-24.281 101.56-7.136 107.76 68.851-66.412 37.481-120.3-11.604-117.43-50.658 5.004 1.025 12.915-0.616 16.506-2.873" fill="#F9DBDD"/>
   <path id="path164" d="m667.96 374.81c4.833-2.211 11.958-9.382 14.306-15.321 42.884 23.597 57.589 113.48-26.891 157.57-75.418-58.222-45.119-144.15 1.22-159.85 1.242 6.259 7.011 14.569 11.365 17.601" fill="#FFFFFE"/>
   <path id="path165" d="m1050.9 886.55c0.866 4.149 5.243 10.943 9.483 13.815-25.83 29.411-98.581 25.375-118.44-48.218 58.501-48.858 120.4-10.351 124.64 28.544-5.107-0.092-12.584 2.963-15.685 5.859" fill="#FFFFFE"/>
   <path id="path166" d="m332.04 876.25c-4.161 0.912-10.943 5.313-13.77 9.576-29.559-25.672-25.922-98.468 47.569-118.71 49.177 58.251 11.012 120.33-27.894 124.82 0.091-5.107-3.021-12.585-5.905-15.686" fill="#F9DBDD"/>
   <path id="path167" d="m1176.1 804.18c1.276 4.059 6.315 10.396 10.807 12.813-22.799 31.827-95.595 34.996-122.63-36.272 53.417-54.397 118.78-22.206 126.87 16.118-5.084 0.388-12.243 4.172-15.047 7.341" fill="#F9DBDD"/>
   <path id="path168" d="m1357.1 859.56c2.668 3.306 9.667 7.387 14.729 8.003-9.644 37.936-76.307 67.393-127.42 10.875 29.934-70.129 102.55-63.95 124.02-31.212-4.582 2.234-9.871 8.367-11.331 12.334" fill="#FFFFFE"/>
   <path id="path169" d="m501.26 865.33c-2.69-3.283-9.701-7.342-14.773-7.911 9.461-38.006 75.976-67.78 127.38-11.468-29.616 70.242-102.25 64.406-123.9 31.759 4.593-2.234 9.848-8.391 11.296-12.38" fill="#F9DBDD"/>
   <path id="path170" d="m1081.9 639.92c4.788 2.28 14.865 3.101 20.929 1.049 9.667 47.991-49.495 117.25-137.7 81.185-4.218-95.183 80.98-127.54 122.86-102.25-3.967 4.993-6.589 14.75-6.087 20.017" fill="#FFFFFE"/>
   <path id="path171" d="m286.91 610.76c5.266 0.639 15.092-1.756 20.199-5.608 24.247 42.519-10.134 126.87-105.2 120.38-33.935-89.052 36.763-146.5 84.492-135.7-2.189 5.996-1.619 16.073 0.513 20.929" fill="#FFFFFE"/>
   <path id="path172" d="m104.68 609.14c2.257-4.811 3.009-14.887 0.923-20.929 47.934-9.94 117.52 48.835 81.961 137.22-95.173 4.765-127.98-80.251-102.95-122.29 5.016 3.968 14.796 6.52 20.063 5.996" fill="#FFFFFE"/>
   <path id="path173" d="m46.825 781.93c-3.864-3.603-13.223-7.433-19.641-7.341 5.392-48.63 82.805-96.666 155.86-35.52-24.873 91.992-115.86 96.893-148.11 60.12 5.312-3.58 10.761-12.061 11.889-17.259" fill="#FFFFFE"/>
   <path id="path174" d="m193.3 890.36c-4.628 2.577-11.16 10.282-13.041 16.393-44.605-20.131-66.378-108.57 14.374-159.18 79.773 52.072 56.359 140.1 11.4 159.43-1.755-6.179-8.15-13.976-12.733-16.644" fill="#FFFFFE"/>
   <path id="path175" d="m341.67 784.58c1.038 5.198 6.338 13.793 11.582 17.464-32.944 36.204-123.82 29.547-147-62.833 74.209-59.801 150.71-10.305 155.19 38.392-6.395-0.227-15.811 3.443-19.767 6.977" fill="#FFFFFE"/>
   <path id="path176" d="m201.9 725.53-7.353 3.146-6.987-3.238 0.399 7.98-4.913 5.654 7.375 2.098 4.206 6.406 3.921-6.384 7.695-1.983-5.141-5.7z" fill="#AB8072"/>
   <path id="path177" d="m163.38 679.38c10.601 13.564 6.201 22.434 20.632 39.532" fill-opacity="0" stroke="#F8CB89" stroke-linecap="round" stroke-linejoin="round" stroke-width="2.621"/>
   <path id="path178" d="m227.48 669.85c-10.51 3.603-13.805 28.271-22.399 47.558" fill-opacity="0" stroke="#F8CB89" stroke-linecap="round" stroke-linejoin="round" stroke-width="2.621"/>
   <path id="path179" d="m239.96 690.48c-3.204 16.871-18.068 24.417-30.961 31.257" fill-opacity="0" stroke="#F8CB89" stroke-linecap="round" stroke-linejoin="round" stroke-width="2.621"/>
   <path id="path180" d="m216.33 740.71c15.024 1.847 36.797 5.152 48.31 13.702" fill-opacity="0" stroke="#F8CB89" stroke-linecap="round" stroke-linejoin="round" stroke-width="2.621"/>
   <path id="path181" d="m212.47 744.97c8.276 6.134 30.288 8.162 38.598 17.168" fill-opacity="0" stroke="#F8CB89" stroke-linecap="round" stroke-linejoin="round" stroke-width="2.621"/>
   <path id="path182" d="m203.54 748.35c5.187 7.432 12.334 33.377 22 37.663" fill-opacity="0" stroke="#F8CB89" stroke-linecap="round" stroke-linejoin="round" stroke-width="2.621"/>
   <path id="path183" d="m195.69 756.08c1.903 12.813-5.392 18.809-5.084 31.872" fill-opacity="0" stroke="#F8CB89" stroke-linecap="round" stroke-linejoin="round" stroke-width="2.621"/>
   <path id="path184" d="m185.91 748.1c-5.916 9.895-12.402 34.996-22.149 32.784" fill-opacity="0" stroke="#F8CB89" stroke-linecap="round" stroke-linejoin="round" stroke-width="2.621"/>
   <path id="path185" d="m181.01 734.51c-15.697-0.935-40.319 1.505-45.438 11.263" fill-opacity="0" stroke="#F8CB89" stroke-linecap="round" stroke-linejoin="round" stroke-width="2.621"/>
   <path id="path186" d="m151.6 759.77c3.534-6.657 21.214-17.076 28.088-17.691" fill-opacity="0" stroke="#F8CB89" stroke-linecap="round" stroke-linejoin="round" stroke-width="2.621"/>
   <path id="path187" d="m142.92 707.02c7.945 9.438 31.576 11.239 40.08 18.991" fill-opacity="0" stroke="#F8CB89" stroke-linecap="round" stroke-linejoin="round" stroke-width="2.621"/>
   <path id="path188" d="m189.14 676.37c11.171 11.855 7.067 33.765 4.959 44.32" fill-opacity="0" stroke="#F8CB89" stroke-linecap="round" stroke-linejoin="round" stroke-width="2.621"/>
   <path id="path189" d="m210.66 730.06c14.773 0.274 39.84-4.674 41.63-14.75" fill-opacity="0" stroke="#F8CB89" stroke-linecap="round" stroke-linejoin="round" stroke-width="2.621"/>
   <path id="path190" d="m716.42 842.96c-0.616 4.377 1.22 12.607 4.354 16.916-35.793 19.538-105.56-10.396-98.661-89.507 74.7-26.902 121.51 32.875 111.76 72.477-4.97-1.893-13.383-1.596-17.452 0.114" fill="#FFFFFE"/>
   <path id="path191" d="m720.58 691.15c3.956 1.961 12.345 2.736 17.429 1.095 7.535 40.08-42.508 97.167-115.62 66.161-2.485-79.361 68.84-105.4 103.48-83.876-3.374 4.127-5.654 12.243-5.289 16.62" fill="#FFFFFE"/>
   <path id="path192" d="m577.5 640.28c3.055-3.169 6.395-10.898 6.406-16.256 40.445 5.244 79.282 70.471 27.21 130.43-76.261-22.16-78.974-98.033-47.808-124.34 2.884 4.491 9.883 9.165 14.192 10.168" fill="#FFFFFE"/>
   <path id="path193" d="m484.89 760.66c-2.063-3.898-8.401-9.461-13.451-11.125 17.463-36.865 91.491-53.623 132.42 14.431-44.628 65.66-117.63 44.799-133.03 7.045 5.153-1.368 11.776-6.589 14.056-10.351" fill="#FFFFFE"/>
   <path id="path194" d="m570.76 885.92c-4.354 0.775-11.593 5.062-14.75 9.37-29.65-27.996-22.719-103.6 54.636-121.49 48.676 62.741 6.27 125.71-34.38 128.7 0.274-5.335-2.633-13.245-5.506-16.574" fill="#FFFFFE"/>
   <path id="path195" d="m622.11 770.37-2.508-6.156 2.781-5.814-6.634 0.229-4.639-4.173-1.847 6.11-5.403 3.397 5.244 3.375 1.538 6.452 4.845-4.218z" fill="#AB8072"/>
   <path id="path196" d="m661.14 738.98c-11.479 8.641-18.775 4.833-33.252 16.574" fill-opacity="0" stroke="#F8CB89" stroke-linecap="round" stroke-linejoin="round" stroke-width="2.184"/>
   <path id="path197" d="m668.11 792.56c-2.85-8.846-23.346-11.969-39.282-19.424" fill-opacity="0" stroke="#F8CB89" stroke-linecap="round" stroke-linejoin="round" stroke-width="2.184"/>
   <path id="path198" d="m650.72 802.63c-14.01-2.941-20.052-15.435-25.558-26.287" fill-opacity="0" stroke="#F8CB89" stroke-linecap="round" stroke-linejoin="round" stroke-width="2.184"/>
   <path id="path199" d="m609.23 782.16c-1.778 12.494-4.867 30.596-12.151 40.058" fill-opacity="0" stroke="#F8CB89" stroke-linecap="round" stroke-linejoin="round" stroke-width="2.184"/>
   <path id="path200" d="m605.74 778.88c-5.244 6.794-7.284 25.101-14.922 31.872" fill-opacity="0" stroke="#F8CB89" stroke-linecap="round" stroke-linejoin="round" stroke-width="2.184"/>
   <path id="path201" d="m603.06 771.38c-6.258 4.218-28.008 9.78-31.724 17.76" fill-opacity="0" stroke="#F8CB89" stroke-linecap="round" stroke-linejoin="round" stroke-width="2.184"/>
   <path id="path202" d="m596.75 764.72c-10.714 1.391-15.594-4.765-26.48-4.72" fill-opacity="0" stroke="#F8CB89" stroke-linecap="round" stroke-linejoin="round" stroke-width="2.184"/>
   <path id="path203" d="m603.53 756.69c-8.15-5.084-28.977-10.852-26.982-18.968" fill-opacity="0" stroke="#F8CB89" stroke-linecap="round" stroke-linejoin="round" stroke-width="2.184"/>
   <path id="path204" d="m614.97 752.82c1.003-13.063-0.661-33.628-8.709-38.027" fill-opacity="0" stroke="#F8CB89" stroke-linecap="round" stroke-linejoin="round" stroke-width="2.184"/>
   <path id="path205" d="m594.34 727.92c5.506 3.032 13.907 17.942 14.306 23.665" fill-opacity="0" stroke="#F8CB89" stroke-linecap="round" stroke-linejoin="round" stroke-width="2.184"/>
   <path id="path206" d="m638.45 721.52c-8.002 6.475-9.883 26.127-16.449 33.104" fill-opacity="0" stroke="#F8CB89" stroke-linecap="round" stroke-linejoin="round" stroke-width="2.184"/>
   <path id="path207" d="m663.26 760.5c-10.042 9.119-28.236 5.381-36.991 3.42" fill-opacity="0" stroke="#F8CB89" stroke-linecap="round" stroke-linejoin="round" stroke-width="2.184"/>
   <path id="path208" d="m618.17 777.58c-0.433 12.334 3.317 33.286 11.673 34.904" fill-opacity="0" stroke="#F8CB89" stroke-linecap="round" stroke-linejoin="round" stroke-width="2.184"/>
   <path id="path209" d="m428.11 283.98c1.527 4.149 7.021 10.521 11.832 12.847-22.32 34.118-97.954 40.707-129.26-32.26 53.12-59.014 122.62-28.441 132.74 11.057-5.278 0.673-12.55 4.913-15.32 8.356" fill="#FFFFFE"/>
   <path id="path210" d="m360.02 148.2c4.412-0.137 12.186-3.408 15.879-7.273 25.592 31.77 8.458 105.73-70.629 112.96-39.693-68.761 10.863-125.42 51.558-122.83-1.014 5.244 0.81 13.463 3.192 17.145" fill="#FFFFFE"/>
   <path id="path211" d="m209.89 171c1.197-4.229 0.479-12.642-2.029-17.35 38.108-14.5 103.16 24.634 85.609 102.08-77.675 16.518-115.92-49.063-100.9-87 4.673 2.611 13.052 3.42 17.315 2.269" fill="#FFFFFE"/>
   <path id="path212" d="m185.17 320.86c-3.67-2.474-11.878-4.389-17.11-3.454-2.04-40.741 55.275-90.499 123.51-49.872-8.298 78.974-82.485 95.082-113.9 69.08 3.898-3.636 7.261-11.365 7.5-15.754" fill="#FFFFFE"/>
   <path id="path213" d="m320.02 390.66c-3.465 2.736-7.809 9.94-8.561 15.229-39.362-10.669-68.977-80.558-9.268-132.89 72.546 32.295 64.942 107.84 30.517 129.67-2.28-4.833-8.573-10.419-12.688-12.003" fill="#FFFFFE"/>
   <path id="path214" d="m310.68 264.57-5.119-4.252-0.296-6.429-5.733 3.34-6.065-1.493 1.265 6.269-3.169 5.529 6.224 0.513 4.4 4.947 2.28-6.007z" fill="#AB8072"/>
   <path id="path215" d="m330.25 218.46c-6.03 13.028-14.261 13.121-21.465 30.321" fill-opacity="0" stroke="#F3B882" stroke-linecap="round" stroke-linejoin="round" stroke-width="1.966"/>
   <path id="path216" d="m361.71 262.37c-6.691-6.429-26.229 0.501-43.796 1.459" fill-opacity="0" stroke="#F3B882" stroke-linecap="round" stroke-linejoin="round" stroke-width="1.966"/>
   <path id="path217" d="m351.14 279.47c-13.736 4.046-24.976-4.115-34.95-11.08" fill-opacity="0" stroke="#F3B882" stroke-linecap="round" stroke-linejoin="round" stroke-width="1.966"/>
   <path id="path218" d="m304.9 281.04c4.332 11.844 10.168 29.262 8.219 41.038" fill-opacity="0" stroke="#F3B882" stroke-linecap="round" stroke-linejoin="round" stroke-width="1.966"/>
   <path id="path219" d="m300.28 279.8c-1.402 8.47 5.449 25.568 1.915 35.144" fill-opacity="0" stroke="#F3B882" stroke-linecap="round" stroke-linejoin="round" stroke-width="1.966"/>
   <path id="path220" d="m294.37 274.45c-3.522 6.668-20.063 21.852-19.561 30.63" fill-opacity="0" stroke="#F3B882" stroke-linecap="round" stroke-linejoin="round" stroke-width="1.966"/>
   <path id="path221" d="m285.66 271.56c-8.789 6.304-15.993 3.169-25.569 8.355" fill-opacity="0" stroke="#F3B882" stroke-linecap="round" stroke-linejoin="round" stroke-width="1.966"/>
   <path id="path222" d="m287.84 261.28c-9.576-0.616-30.664 4.126-32.728-3.956" fill-opacity="0" stroke="#F3B882" stroke-linecap="round" stroke-linejoin="round" stroke-width="1.966"/>
   <path id="path223" d="m296.09 252.47c-5.289-11.992-16.472-29.319-25.648-29.399" fill-opacity="0" stroke="#F3B882" stroke-linecap="round" stroke-linejoin="round" stroke-width="1.966"/>
   <path id="path224" d="m266.15 240.26c6.292 0.08 20.747 9.256 23.802 14.112" fill-opacity="0" stroke="#F3B882" stroke-linecap="round" stroke-linejoin="round" stroke-width="1.966"/>
   <path id="path225" d="m302 213.78c-3.99 9.496 3.636 27.701 1.151 36.957" fill-opacity="0" stroke="#F3B882" stroke-linecap="round" stroke-linejoin="round" stroke-width="1.966"/>
   <path id="path226" d="m342.28 236.41c-4.537 12.79-22.342 18.09-30.972 20.507" fill-opacity="0" stroke="#F3B882" stroke-linecap="round" stroke-linejoin="round" stroke-width="1.966"/>
   <path id="path227" d="m310.62 272.79c5.449 11.069 18.649 27.746 26.788 25.238" fill-opacity="0" stroke="#F3B882" stroke-linecap="round" stroke-linejoin="round" stroke-width="1.966"/>
   <path id="path228" d="m568.14 441.95c3.351 2.873 11.285 5.723 16.62 5.38-2.69 40.724-65.364 83.563-128.45 35.344 17.327-77.498 92.881-84.953 121.08-55.52-4.263 3.169-8.527 10.442-9.256 14.796" fill="#FFFFFE"/>
   <path id="path229" d="m442.2 357.07c3.785-2.303 8.937-8.96 10.259-14.135 37.891 15.138 59.254 87.979-6.087 133.1-68.35-40.451-52.095-114.62-15.366-132.35 1.687 5.061 7.296 11.354 11.194 13.383" fill="#FFFFFE"/>
   <path id="path230" d="m322.57 450.62c-1.048-4.286-5.791-11.263-10.282-14.135 26.104-31.348 101.98-29.159 124.68 46.948-59.572 52.505-125.07 14.112-130.61-26.292 5.357-0.023 13.063-3.42 16.209-6.521" fill="#FFFFFE"/>
   <path id="path231" d="m374.56 593.32c-4.4-0.342-12.494 2.007-16.597 5.381-21.75-34.494 3.762-105.97 83.146-104.05 31.531 72.864-25.215 123.32-65.341 116.09 1.596-5.107 0.753-13.475-1.208-17.419" fill="#FFFFFE"/>
   <path id="path232" d="m526.33 587.96c-1.665 4.081-1.938 12.494 0 17.464-39.533 10.031-99.63-36.341-73.275-111.26 79.043-7.455 109.5 62.104 90.214 98.034-4.355-3.101-12.585-4.879-16.939-4.241" fill="#FFFFFE"/>
   <path id="path233" d="m456.31 482.68-6.566-1.186-3.374-5.448-3.397 5.699-5.996 1.688 4.172 4.833-0.046 6.384 5.654-2.622 6.293 2.143-0.958-6.315z" fill="#AB8072"/>
   <path id="path234" d="m450.73 432.9c1.14 14.294-5.996 18.421-3.831 36.934" fill-opacity="0" stroke="#F8CB89" stroke-linecap="round" stroke-linejoin="round" stroke-width="2.184"/>
   <path id="path235" d="m499.67 455.72c-8.96-2.326-22.593 13.292-37.435 22.759" fill-opacity="0" stroke="#F8CB89" stroke-linecap="round" stroke-linejoin="round" stroke-width="2.184"/>
   <path id="path236" d="m498.88 475.81c-10.009 10.26-23.779 8.664-35.885 7.501" fill-opacity="0" stroke="#F8CB89" stroke-linecap="round" stroke-linejoin="round" stroke-width="2.184"/>
   <path id="path237" d="m459.34 499.87c9.598 8.185 23.232 20.496 27.313 31.735" fill-opacity="0" stroke="#F8CB89" stroke-linecap="round" stroke-linejoin="round" stroke-width="2.184"/>
   <path id="path238" d="m454.72 501.05c2.941 8.071 17.282 19.607 18.923 29.684" fill-opacity="0" stroke="#F8CB89" stroke-linecap="round" stroke-linejoin="round" stroke-width="2.184"/>
   <path id="path239" d="m446.94 499.3c0.205 7.546-6.749 28.886-2.006 36.295" fill-opacity="0" stroke="#F8CB89" stroke-linecap="round" stroke-linejoin="round" stroke-width="2.184"/>
   <path id="path240" d="m437.94 501.05c-4.56 9.78-12.402 10.602-18.193 19.813" fill-opacity="0" stroke="#F8CB89" stroke-linecap="round" stroke-linejoin="round" stroke-width="2.184"/>
   <path id="path241" d="m434.79 491.02c-8.641 4.149-24.691 18.649-30.459 12.607" fill-opacity="0" stroke="#F8CB89" stroke-linecap="round" stroke-linejoin="round" stroke-width="2.184"/>
   <path id="path242" d="m437.66 479.3c-10.487-7.871-28.726-17.492-36.774-13.046" fill-opacity="0" stroke="#F8CB89" stroke-linecap="round" stroke-linejoin="round" stroke-width="2.184"/>
   <path id="path243" d="m405.58 483.36c5.518-3.01 22.594-2.12 27.655 0.615" fill-opacity="0" stroke="#F8CB89" stroke-linecap="round" stroke-linejoin="round" stroke-width="2.184"/>
   <path id="path244" d="m423.8 442.68c1.186 10.237 16.78 22.343 19.151 31.645" fill-opacity="0" stroke="#F8CB89" stroke-linecap="round" stroke-linejoin="round" stroke-width="2.184"/>
   <path id="path245" d="m470.01 442.64c2.326 13.36-10.578 26.72-16.917 33.086" fill-opacity="0" stroke="#F8CB89" stroke-linecap="round" stroke-linejoin="round" stroke-width="2.184"/>
   <path id="path246" d="m460.28 489.86c10.168 6.977 29.866 15.048 35.749 8.869" fill-opacity="0" stroke="#F8CB89" stroke-linecap="round" stroke-linejoin="round" stroke-width="2.184"/>
  </g>
 </g>
</svg>
